<svg width="81" height="53" viewBox="0 0 81 53" fill="none" xmlns="http://www.w3.org/2000/svg">
<path fill-rule="evenodd" clip-rule="evenodd" d="M0.907923 20.1685C1.195 19.9463 1.53603 19.77 1.91148 19.6497C2.28693 19.5294 2.68944 19.4675 3.09593 19.4675C3.50243 19.4675 3.90493 19.5294 4.28038 19.6497C4.65584 19.77 4.99687 19.9463 5.28394 20.1685L40.1808 47.1166L75.0777 20.1685C75.658 19.7205 76.445 19.4688 77.2657 19.4688C78.0863 19.4688 78.8734 19.7205 79.4537 20.1685C80.034 20.6166 80.36 21.2242 80.36 21.8578C80.36 22.4915 80.034 23.0991 79.4537 23.5472L42.3688 52.1798C42.0817 52.402 41.7407 52.5783 41.3653 52.6986C40.9898 52.8188 40.5873 52.8808 40.1808 52.8808C39.7743 52.8808 39.3718 52.8188 38.9964 52.6986C38.6209 52.5783 38.2799 52.402 37.9928 52.1798L0.907923 23.5472C0.620125 23.3255 0.391788 23.0622 0.235991 22.7723C0.0801952 22.4825 0 22.1717 0 21.8578C0 21.544 0.0801952 21.2332 0.235991 20.9433C0.391788 20.6535 0.620125 20.3902 0.907923 20.1685Z" fill="#F7EC0C"/>
<path fill-rule="evenodd" clip-rule="evenodd" d="M0.907923 1.08039C1.195 0.858181 1.53603 0.681887 1.91148 0.561599C2.28693 0.441312 2.68944 0.379395 3.09593 0.379395C3.50243 0.379395 3.90493 0.441312 4.28038 0.561599C4.65584 0.681887 4.99687 0.858181 5.28394 1.08039L40.1808 28.0284L75.0777 1.08039C75.365 0.858541 75.7061 0.682564 76.0815 0.562503C76.457 0.442441 76.8593 0.380646 77.2657 0.380646C77.672 0.380646 78.0744 0.442441 78.4498 0.562503C78.8252 0.682564 79.1664 0.858541 79.4537 1.08039C79.741 1.30223 79.9689 1.5656 80.1245 1.85545C80.28 2.14531 80.36 2.45597 80.36 2.76971C80.36 3.08345 80.28 3.39411 80.1245 3.68396C79.9689 3.97382 79.741 4.23719 79.4537 4.45903L42.3688 33.0916C42.0817 33.3138 41.7407 33.4901 41.3653 33.6104C40.9898 33.7307 40.5873 33.7926 40.1808 33.7926C39.7743 33.7926 39.3718 33.7307 38.9964 33.6104C38.6209 33.4901 38.2799 33.3138 37.9928 33.0916L0.907923 4.45903C0.620125 4.23739 0.391788 3.97409 0.235991 3.6842C0.0801952 3.39432 0 3.08356 0 2.76971C0 2.45586 0.0801952 2.1451 0.235991 1.85521C0.391788 1.56533 0.620125 1.30203 0.907923 1.08039Z" fill="#F7EC0C"/>
</svg>
