<svg id="Capa_1" data-name="Capa 1" xmlns="http://www.w3.org/2000/svg" viewBox="0 0 233.7 95.36"><defs><style>.cls-1{fill:#fff;}</style></defs><path class="cls-1" d="M224.05,212.51H181.81V170.33h11.95v36.32h30.29Z" transform="translate(-181.81 -170.33)"/><path class="cls-1" d="M271.91,212.51H229.67V170.33h42.24v5.8H241.62v12.36h24.2v5.86h-24.2v12.3h30.29Z" transform="translate(-181.81 -170.33)"/><path class="cls-1" d="M313.68,176.13H301.56v36.38h-11.9V176.13H277.54v-5.8h36.14Z" transform="translate(-181.81 -170.33)"/><path class="cls-1" d="M355.45,188.26h-5.91v.23h-.18v5.86h-5.8v-5.86h5.8v-.23h.18v-6h-6V170.33h11.89Z" transform="translate(-181.81 -170.33)"/><path class="cls-1" d="M415.5,206.42h-6.09v6.09H379.36v-5.86h-.18v-.23h-5.92v-5.68l5.92-.53v6.21h.18v.23h18.16v-5.91H391v-6.21H379.36v-5.92l-6.1-.29V177.13h6.1v-6h30.05v5.8h.18v.24h5.91V183h-5.91v-5.86h-.18v-.24H385.22v6.33h6.44v5.1h11.72v5.8l6,.41v5.91h6.09Z" transform="translate(-181.81 -170.33)"/><path class="cls-1" d="M224.05,246.83H218v6H193.7v12.89H181.81V223.51H218v6h6.09Zm-12.07,0V229.54h-18.1v17.29Z" transform="translate(-181.81 -170.33)"/><path class="cls-1" d="M271.91,265.69H229.67V223.51h12v36.32h30.29Z" transform="translate(-181.81 -170.33)"/><path class="cls-1" d="M319.78,265.69h-11.9V253.56H289.43v12.13H277.54V229.54h6.09v-6h30.05v6h6.1Zm-12.07-18.1V229.54H289.6v18.05Z" transform="translate(-181.81 -170.33)"/><path class="cls-1" d="M361.61,241.67h-6.1v5.86h-5.68v18.16H337.18V247.53h-5.69v-5.86H325.4V223.51h12.3v17.75h11.6V223.51h12.31Z" transform="translate(-181.81 -170.33)"/><path class="cls-1" d="M415.45,241.49h-6.1v6.1h-5.68v6H391.43V247.7h6v-6.09h5.68V229.54h-18v5.86h-5.8v-5.86h6v-6h24v5.68l6.1.35Zm-12.13,24.2H391.43v-5.86h11.89Z" transform="translate(-181.81 -170.33)"/></svg>