<svg id="Capa_1" data-name="Capa 1" xmlns="http://www.w3.org/2000/svg" xmlns:xlink="http://www.w3.org/1999/xlink" viewBox="0 0 543.74 499.9"><defs><style>.cls-1,.cls-4,.cls-7{fill:none;}.cls-2{clip-path:url(#clip-path);}.cls-3{fill:#f1e514;}.cls-4{stroke:#f1e514;}.cls-5{font-size:35px;font-family:MinionPro-Regular, MinionPro Regular;}.cls-6{fill:#1d1d1b;}.cls-7{stroke:#1d1d1b;stroke-miterlimit:10;stroke-width:3px;}</style><clipPath id="clip-path" transform="translate(-25.63 -170.55)"><rect class="cls-1" x="25.63" y="170.55" width="543.74" height="499.9"/></clipPath></defs><g class="cls-2"><path class="cls-3" d="M251.33,350.79c13,0,23.5-10.26,23.5-22.92S264.31,305,251.33,305s-23.51,10.26-23.51,22.92,10.53,22.92,23.51,22.92" transform="translate(-25.63 -170.55)"/><path class="cls-3" d="M250.72,425.58c13,0,23.5-10.27,23.5-22.93s-10.52-22.92-23.5-22.92S227.21,390,227.21,402.65s10.53,22.93,23.51,22.93" transform="translate(-25.63 -170.55)"/><path class="cls-3" d="M252.31,504.92c13,0,23.48-10.24,23.48-22.87s-10.51-22.87-23.48-22.87-23.48,10.24-23.48,22.87,10.51,22.87,23.48,22.87" transform="translate(-25.63 -170.55)"/><ellipse class="cls-4" cx="226.68" cy="311.5" rx="23.48" ry="22.87"/><path class="cls-3" d="M252.74,579.31c13,0,23.51-10.26,23.51-22.92s-10.52-22.92-23.51-22.92-23.5,10.26-23.5,22.92,10.52,22.92,23.5,22.92" transform="translate(-25.63 -170.55)"/><path class="cls-3" d="M403.74,526.07a24.66,24.66,0,0,0,32.17-9.84,21.88,21.88,0,0,0-9.33-30.64,24.66,24.66,0,0,0-32.18,9.84,21.9,21.9,0,0,0,9.34,30.64" transform="translate(-25.63 -170.55)"/><path class="cls-3" d="M460.21,433.83A24.63,24.63,0,0,0,492.38,424a21.88,21.88,0,0,0-9.33-30.63,24.63,24.63,0,0,0-32.17,9.84,21.88,21.88,0,0,0,9.33,30.63" transform="translate(-25.63 -170.55)"/></g><text class="cls-5" transform="translate(215.48 170.37)">1</text><text class="cls-5" transform="translate(216.11 244.92)">2</text><text class="cls-5" transform="translate(217.68 324.3)">3</text><text class="cls-5" transform="translate(218.1 398.64)">4</text><text class="cls-5" transform="translate(380.18 350.23)">5</text><text class="cls-5" transform="translate(436.07 256.72)">6</text><g class="cls-2"><path class="cls-6" d="M77.59,193.16a13.31,13.31,0,0,0,6.46,1.72c3.69,0,5.84-1.84,5.84-4.49,0-2.46-1.49-3.87-5.26-5.23-4.56-1.53-7.37-3.75-7.37-7.46,0-4.1,3.6-7.15,9-7.15a13.21,13.21,0,0,1,6.17,1.29l-1,2.77a11.64,11.64,0,0,0-5.3-1.25c-3.82,0-5.27,2.15-5.27,3.95,0,2.46,1.7,3.67,5.56,5.07,4.72,1.72,7.12,3.87,7.12,7.73,0,4.07-3.19,7.62-9.78,7.62A15,15,0,0,1,76.68,196Z" transform="translate(-25.63 -170.55)"/></g><polygon class="cls-6" points="69.69 0.43 69.69 3.32 78.19 3.32 78.19 26.75 81.83 26.75 81.83 3.32 90.37 3.32 90.37 0.43 69.69 0.43"/><g class="cls-2"><path class="cls-6" d="M129.67,186.37l-2.73-7.58c-.62-1.72-1-3.28-1.45-4.8h-.08c-.42,1.56-.87,3.16-1.41,4.76l-2.74,7.62ZM120.52,189l-2.91,8.28h-3.72L123.37,171h4.36l9.53,26.32H133.4l-3-8.28Z" transform="translate(-25.63 -170.55)"/><path class="cls-6" d="M145,183.32h3.69c3.85,0,6.3-2,6.3-5,0-3.4-2.61-4.88-6.42-4.92a16.21,16.21,0,0,0-3.57.31Zm-3.6-12a39.84,39.84,0,0,1,6.92-.55c3.85,0,6.34.67,8.08,2.15a6.37,6.37,0,0,1,2.19,5c0,3.48-2.32,5.78-5.26,6.72v.12c2.16.7,3.44,2.57,4.1,5.31.92,3.67,1.58,6.21,2.16,7.22h-3.73A32.87,32.87,0,0,1,154,191c-.83-3.63-2.33-5-5.6-5.11H145v11.4h-3.6Z" transform="translate(-25.63 -170.55)"/></g><polygon class="cls-6" points="135.2 0.43 135.2 3.32 143.7 3.32 143.7 26.75 147.34 26.75 147.34 3.32 155.88 3.32 155.88 0.43 135.2 0.43"/><polygon class="cls-6" points="452.82 125.88 465.43 132.84 463.95 135.23 454.36 129.94 449.8 137.27 458.66 142.16 457.2 144.52 448.34 139.63 442.13 149.62 439.11 147.95 452.82 125.88"/><polygon class="cls-6" points="472.76 136.88 459.05 158.95 456.03 157.28 469.74 135.21 472.76 136.88"/><g class="cls-2"><path class="cls-6" d="M490,332.41l13.71-22.07,3.3,1.82.57,15.31a68.56,68.56,0,0,1-.25,9.49h.09c1.55-3.1,3.15-5.82,5.29-9.26l5.73-9.23,2.85,1.57-13.7,22.07-3.06-1.69-.48-15.3a76.72,76.72,0,0,1,.19-9.78l-.12,0c-1.56,2.88-3.13,5.57-5.41,9.23L492.81,334Z" transform="translate(-25.63 -170.55)"/></g><polygon class="cls-6" points="503.93 154.07 490.22 176.14 487.2 174.47 500.9 152.4 503.93 154.07"/><g class="cls-2"><path class="cls-6" d="M522.87,345.9a12,12,0,0,0,4.52,4.43c3.1,1.71,5.86,1.16,7.24-1.06,1.28-2.07.76-3.93-1.69-6.83-3-3.38-4.23-6.55-2.3-9.66,2.14-3.44,6.75-4.33,11.3-1.81a11.93,11.93,0,0,1,4.5,3.93l-2.27,1.87a10.48,10.48,0,0,0-3.8-3.51c-3.2-1.76-5.53-.63-6.47.88-1.28,2.06-.48,3.86,2,6.82,3.06,3.63,4,6.54,2,9.78-2.12,3.41-6.65,4.91-12.17,1.87a13.67,13.67,0,0,1-5.08-4.74Z" transform="translate(-25.63 -170.55)"/></g><polygon class="cls-6" points="512.63 188.5 515.65 190.16 522.08 179.82 533.4 186.06 526.98 196.41 530.04 198.1 543.74 176.03 540.68 174.34 534.95 183.58 523.62 177.33 529.36 168.09 526.34 166.43 512.63 188.5"/><g class="cls-2"><path class="cls-7" d="M469.18,357.78,432.3,338.91l8-12.3,111.82,60.45L546,396,524.6,384.15,354.22,668.65l-95-31.46.16-27.56L370,609.32l-.91-43.39,20.14-31.8-19.51-10.69Zm-307,171.71v56.2H342.49v-56.2Zm-2.31-75.22v54.17H341.66V454.27Zm0-77.55-.24,54.78,182.36,0,0-54.81Zm-6.2-80.22H352.29l.15,67H153.64Zm6.59,5.81-.09,54.93,182.75-.1-.14-54.93Zm182-79.28v6.43H160.43l-.14,53.63H342.11l.06,7.52-188.55.08,0-67.66ZM146,215.41H319.53l.35-7.21-14.64-.6.06-12.31,20.7.85-.76,16.33,2.57.31,0,2.63h46.93L374,190.47,409,265.56l-17,6.05L391,283.72l-19.18-.79-.58,12.45-6.82-.12,0,16.46h15.24l5.53,48.78-20.81-.66V370H153.62l0,21.41h-9l.49-54-21.76.37-.25,27.14-21.42.07.46-27.92L80.22,337v29.2l-14.33-.11-.83,17.8,46,.46.4,51.17h31.71l0-5.5,10.47,0,0,10.26H331.7V447H153.62v68.89H334.54v6.95H153.64v45.45l-15-1.58-.47,18.42L32,544l-.3-11.69,37.63-.4V520.68l31,.05L100,505.46l-68.62,1.29,0-19.57,77.38-1.25.72,18.23,33.4-.31-1-56.23-6-.36.17-3.78-24.53,0v21H101.25v7.6l-70.39.42V452.78h69.21v-8H84.43v-4.54H27.13V311.16H37.79L38,289.84l4.14.28,1.69-62.86,23-3.48,22.11,3,.38-5.77,22.2-2.38v53h18.75v-32H146Z" transform="translate(-25.63 -170.55)"/></g></svg>